<svg xmlns="http://www.w3.org/2000/svg" width="1920" height="1080"><path d="M-191 1547l-214 22 808 4z" fill="#749c82" stroke="#749c82" stroke-width="1.51"/><path d="M960 1465l-357 43 878 56z" fill="#35885d" stroke="#35885d" stroke-width="1.51"/><path d="M603 1508l-200 65 1078-9z" fill="#418a64" stroke="#418a64" stroke-width="1.51"/><path d="M703-485l276 20 807 16z" fill="#a7d9c3" stroke="#a7d9c3" stroke-width="1.51"/><path d="M1261-428l316 26 209-47z" fill="#96caa8" stroke="#96caa8" stroke-width="1.51"/><path d="M979-465l282 37 525-21z" fill="#9ed4b7" stroke="#9ed4b7" stroke-width="1.51"/><path d="M2050 1282l228 17 30-332z" fill="#0c6e30" stroke="#0c6e30" stroke-width="1.51"/><path d="M1960 1017l90 265 258-315z" fill="#137937" stroke="#137937" stroke-width="1.51"/><path d="M2098 453l176 239 57-359z" fill="#3e8f65" stroke="#3e8f65" stroke-width="1.51"/><path d="M2274 692l34 275 23-634z" fill="#2f8456" stroke="#2f8456" stroke-width="1.51"/><path d="M1996 62l336 128 9-388z" fill="#6da17f" stroke="#6da17f" stroke-width="1.51"/><path d="M1991-68l5 130 345-260z" fill="#75aa86" stroke="#75aa86" stroke-width="1.51"/><path d="M2332 190l-1 143 10-531z" fill="#629778" stroke="#629778" stroke-width="1.51"/><path d="M2012 1459l-531 105 873-43z" fill="#06652b" stroke="#06652b" stroke-width="1.51"/><path d="M2278 1299l-266 160 342 62z" fill="#005f26" stroke="#005f26" stroke-width="1.51"/><path d="M2308 967l-30 332 76 222z" fill="#06642a" stroke="#06642a" stroke-width="1.51"/><path d="M2331 333l-23 634 46 554z" fill="#1b753e" stroke="#1b753e" stroke-width="1.51"/><path d="M2341-198l-10 531 23 1188z" fill="#37865e" stroke="#37865e" stroke-width="1.51"/><path d="M2098 453l233-120 1-143z" fill="#4f956f" stroke="#4f956f" stroke-width="1.51"/><path d="M2268-318L1991-68l350-130z" fill="#78a787" stroke="#78a787" stroke-width="1.51"/><path d="M2274 692l-314 325 348-50z" fill="#208146" stroke="#208146" stroke-width="1.51"/><path d="M1996 62l102 391 234-263z" fill="#5a9f78" stroke="#5a9f78" stroke-width="1.51"/><path d="M1695 1442l-214 122 531-105z" fill="#117033" stroke="#117033" stroke-width="1.51"/><path d="M2050 1282l-38 177 266-160z" fill="#006a2b" stroke="#006a2b" stroke-width="1.51"/><path d="M2034-382l-43 314 277-250z" fill="#7eae8d" stroke="#7eae8d" stroke-width="1.51"/><path d="M2098 453l-128 143 304 96z" fill="#399262" stroke="#399262" stroke-width="1.51"/><path d="M1970 596l-10 421 314-325z" fill="#2a8e54" stroke="#2a8e54" stroke-width="1.51"/><path d="M1817 601l-40 387 183 29z" fill="#2a9253" stroke="#2a9253" stroke-width="1.51"/><path d="M1817 601l143 416 10-421z" fill="#32965c" stroke="#32965c" stroke-width="1.51"/><path d="M1833-190l158 122 43-314z" fill="#81b490" stroke="#81b490" stroke-width="1.51"/><path d="M1996 62l-205 253 307 138z" fill="#5ba67b" stroke="#5ba67b" stroke-width="1.51"/><path d="M1791 315l179 281 128-143z" fill="#4a9f70" stroke="#4a9f70" stroke-width="1.51"/><path d="M1791 315l26 286 153-5z" fill="#47a170" stroke="#47a170" stroke-width="1.51"/><path d="M1713 1229l299 230 38-177z" fill="#0b7432" stroke="#0b7432" stroke-width="1.51"/><path d="M1960 1017l-247 212 337 53z" fill="#167d39" stroke="#167d39" stroke-width="1.51"/><path d="M1713 1229l-18 213 317 17z" fill="#0f7534" stroke="#0f7534" stroke-width="1.51"/><path d="M1786-449l47 259 201-192z" fill="#87b995" stroke="#87b995" stroke-width="1.51"/><path d="M1719 59l72 256 205-253z" fill="#6cb087" stroke="#6cb087" stroke-width="1.51"/><path d="M1777 988l-64 241 247-212z" fill="#1f8641" stroke="#1f8641" stroke-width="1.51"/><path d="M1991-68L1719 59l277 3z" fill="#76b28a" stroke="#76b28a" stroke-width="1.51"/><path d="M1833-190L1719 59l272-127z" fill="#7db690" stroke="#7db690" stroke-width="1.51"/><path d="M1567 1032l210-44 40-387z" fill="#2f9857" stroke="#2f9857" stroke-width="1.51"/><path d="M1414 600l153 432 250-431z" fill="#3ca469" stroke="#3ca469" stroke-width="1.51"/><path d="M1791 315l-302 117 328 169z" fill="#52aa7a" stroke="#52aa7a" stroke-width="1.51"/><path d="M1554-121l165 180 114-249z" fill="#82bd96" stroke="#82bd96" stroke-width="1.51"/><path d="M1786-449l-209 47 256 212z" fill="#8dc09b" stroke="#8dc09b" stroke-width="1.51"/><path d="M1577-402l-23 281 279-69z" fill="#8bc19e" stroke="#8bc19e" stroke-width="1.51"/><path d="M1567 1032l146 197 64-241z" fill="#248c46" stroke="#248c46" stroke-width="1.51"/><path d="M1719 59l-230 128 302 128z" fill="#6db68c" stroke="#6db68c" stroke-width="1.51"/><path d="M1489 432l-75 168 403 1z" fill="#4cac7c" stroke="#4cac7c" stroke-width="1.51"/><path d="M1489 187v245l302-117z" fill="#63b58a" stroke="#63b58a" stroke-width="1.51"/><path d="M1492 1250l203 192 18-213z" fill="#1a813f" stroke="#1a813f" stroke-width="1.51"/><path d="M1567 1032l-75 218 221-21z" fill="#248b48" stroke="#248b48" stroke-width="1.51"/><path d="M1554-121l-65 308 230-128z" fill="#7ebf99" stroke="#7ebf99" stroke-width="1.51"/><path d="M1492 1250l-11 314 214-122z" fill="#1b7d40" stroke="#1b7d40" stroke-width="1.51"/><path d="M1299 1451l-339 14 521 99z" fill="#298450" stroke="#298450" stroke-width="1.51"/><path d="M1299 1451l182 113 11-314z" fill="#218348" stroke="#218348" stroke-width="1.51"/><path d="M1298 192l191-5 65-308z" fill="#7fc5a1" stroke="#7fc5a1" stroke-width="1.51"/><path d="M1261-428l-99 280 392 27z" fill="#97d1b5" stroke="#97d1b5" stroke-width="1.51"/><path d="M1414 600l-202 399 355 33z" fill="#3ba66b" stroke="#3ba66b" stroke-width="1.51"/><path d="M1261-428l293 307 23-281z" fill="#95ccad" stroke="#95ccad" stroke-width="1.51"/><path d="M1305 1300l-6 151 193-201z" fill="#268c4e" stroke="#268c4e" stroke-width="1.51"/><path d="M1162-148l136 340 256-313z" fill="#8ccdad" stroke="#8ccdad" stroke-width="1.51"/><path d="M1212 999l280 251 75-218z" fill="#2f9757" stroke="#2f9757" stroke-width="1.51"/><path d="M1143 655l69 344 202-399z" fill="#4ab280" stroke="#4ab280" stroke-width="1.51"/><path d="M1262 424l152 176 75-168z" fill="#59b88c" stroke="#59b88c" stroke-width="1.51"/><path d="M1489 187l-191 5 191 240z" fill="#6dbf98" stroke="#6dbf98" stroke-width="1.51"/><path d="M1298 192l-36 232 227 8z" fill="#68bf99" stroke="#68bf99" stroke-width="1.51"/><path d="M1212 999l93 301 187-50z" fill="#2e9658" stroke="#2e9658" stroke-width="1.51"/><path d="M1262 424l-119 231 271-55z" fill="#56b98f" stroke="#56b98f" stroke-width="1.51"/><path d="M-328-437l563 87 468-135z" fill="#def3f1" stroke="#def3f1" stroke-width="1.51"/><path d="M1143 655l-135 314 204 30z" fill="#49af7d" stroke="#49af7d" stroke-width="1.51"/><path d="M1034 46l228 378 36-232z" fill="#7bc9a9" stroke="#7bc9a9" stroke-width="1.51"/><path d="M1162-148L1034 46l264 146z" fill="#8fd1b6" stroke="#8fd1b6" stroke-width="1.51"/><path d="M1044 1252l255 199 6-151z" fill="#2e9158" stroke="#2e9158" stroke-width="1.51"/><path d="M1212 999l-168 253 261 48z" fill="#379a61" stroke="#379a61" stroke-width="1.51"/><path d="M1034 46L892 467l370-43z" fill="#78c9ad" stroke="#78c9ad" stroke-width="1.51"/><path d="M1044 1252l-84 213 339-14z" fill="#34905c" stroke="#34905c" stroke-width="1.51"/><path d="M969-209l193 61 99-280z" fill="#a0d7c2" stroke="#a0d7c2" stroke-width="1.51"/><path d="M979-465l-10 256 292-219z" fill="#a7dac7" stroke="#a7dac7" stroke-width="1.51"/><path d="M892 467l251 188 119-231z" fill="#62c09d" stroke="#62c09d" stroke-width="1.51"/><path d="M1008 969l36 283 168-253z" fill="#41a36d" stroke="#41a36d" stroke-width="1.51"/><path d="M778 166l114 301 142-421z" fill="#89d0bc" stroke="#89d0bc" stroke-width="1.51"/><path d="M882 642l126 327 135-314z" fill="#55b98e" stroke="#55b98e" stroke-width="1.51"/><path d="M892 467l-10 175 261 13z" fill="#63bf9f" stroke="#63bf9f" stroke-width="1.51"/><path d="M969-209l65 255 128-194z" fill="#9cd6c2" stroke="#9cd6c2" stroke-width="1.51"/><path d="M235-350l232-28 236-107z" fill="#ccece6" stroke="#ccece6" stroke-width="1.51"/><path d="M882 642l-156 74 282 253z" fill="#5ebc94" stroke="#5ebc94" stroke-width="1.51"/><path d="M726 716l-1 245 283 8z" fill="#5cb78d" stroke="#5cb78d" stroke-width="1.51"/><path d="M725 961l-19 321 302-313z" fill="#54ab7c" stroke="#54ab7c" stroke-width="1.51"/><path d="M969-209l-230 25 295 230z" fill="#a4dbcb" stroke="#a4dbcb" stroke-width="1.51"/><path d="M739-184l39 350 256-120z" fill="#a1daca" stroke="#a1daca" stroke-width="1.51"/><path d="M1008 969l-302 313 338-30z" fill="#48a271" stroke="#48a271" stroke-width="1.51"/><path d="M706 1282l254 183 84-213z" fill="#42996a" stroke="#42996a" stroke-width="1.51"/><path d="M739-184l230-25 10-256z" fill="#acded1" stroke="#acded1" stroke-width="1.51"/><path d="M703-485l36 301 240-281z" fill="#b5e2d6" stroke="#b5e2d6" stroke-width="1.51"/><path d="M706 1282l-103 226 357-43z" fill="#4a976d" stroke="#4a976d" stroke-width="1.51"/><path d="M-328-437l201 77 362 10z" fill="#e7f6f8" stroke="#e7f6f8" stroke-width="1.51"/><path d="M672 488l54 228 156-74z" fill="#70c5a7" stroke="#70c5a7" stroke-width="1.51"/><path d="M672 488l210 154 10-175z" fill="#72c7ab" stroke="#72c7ab" stroke-width="1.51"/><path d="M778 166L672 488l220-21z" fill="#83cfb8" stroke="#83cfb8" stroke-width="1.51"/><path d="M382 200l10 204 280 84z" fill="#98d7c6" stroke="#98d7c6" stroke-width="1.51"/><path d="M442 1029l264 253 19-321z" fill="#60b083" stroke="#60b083" stroke-width="1.51"/><path d="M703-485L467-378l272 194z" fill="#bfe6df" stroke="#bfe6df" stroke-width="1.51"/><path d="M382 200l290 288 106-322z" fill="#96d7c7" stroke="#96d7c7" stroke-width="1.51"/><path d="M739-184l-285 29 324 321z" fill="#b1e1d6" stroke="#b1e1d6" stroke-width="1.51"/><path d="M454-155l-72 355 396-34z" fill="#b0e1d5" stroke="#b0e1d5" stroke-width="1.51"/><path d="M420 763l22 266 283-68z" fill="#6fbd97" stroke="#6fbd97" stroke-width="1.51"/><path d="M420 763l305 198 1-245z" fill="#6dc29c" stroke="#6dc29c" stroke-width="1.51"/><path d="M672 488L420 763l306-47z" fill="#78c8ab" stroke="#78c8ab" stroke-width="1.51"/><path d="M467-378l-13 223 285-29z" fill="#c0e7e1" stroke="#c0e7e1" stroke-width="1.51"/><path d="M442 1029l-86 124 350 129z" fill="#67b085" stroke="#67b085" stroke-width="1.51"/><path d="M356 1153l247 355 103-226z" fill="#5ca57b" stroke="#5ca57b" stroke-width="1.51"/><path d="M392 404l28 359 252-275z" fill="#87cfb9" stroke="#87cfb9" stroke-width="1.51"/><path d="M356 1153l-147 303 194 117z" fill="#6aa57f" stroke="#6aa57f" stroke-width="1.51"/><path d="M356 1153l47 420 200-65z" fill="#609f7a" stroke="#609f7a" stroke-width="1.51"/><path d="M199-157L64 64l318 136z" fill="#c9ebe4" stroke="#c9ebe4" stroke-width="1.51"/><path d="M209 1456l-400 91 594 26z" fill="#6e9d80" stroke="#6e9d80" stroke-width="1.51"/><path d="M392 404L223 728l197 35z" fill="#8dd0b7" stroke="#8dd0b7" stroke-width="1.51"/><path d="M420 763L234 951l208 78z" fill="#7cc29d" stroke="#7cc29d" stroke-width="1.51"/><path d="M199-157l183 357 72-355z" fill="#c5e9e2" stroke="#c5e9e2" stroke-width="1.51"/><path d="M235-350l-36 193 255 2z" fill="#d1eeeb" stroke="#d1eeeb" stroke-width="1.51"/><path d="M235-350l219 195 13-223z" fill="#ceede9" stroke="#ceede9" stroke-width="1.51"/><path d="M234 951l122 202 86-124z" fill="#77ba91" stroke="#77ba91" stroke-width="1.51"/><path d="M382 200L82 328l310 76z" fill="#abdfd2" stroke="#abdfd2" stroke-width="1.51"/><path d="M223 728l11 223 186-188z" fill="#86cba9" stroke="#86cba9" stroke-width="1.51"/><path d="M70 1276l139 180 147-303z" fill="#75af88" stroke="#75af88" stroke-width="1.51"/><path d="M82 328l141 400 169-324z" fill="#9fd9c8" stroke="#9fd9c8" stroke-width="1.51"/><path d="M64 64l18 264 300-128z" fill="#bbe5dc" stroke="#bbe5dc" stroke-width="1.51"/><path d="M234 951L70 1276l286-123z" fill="#7cb991" stroke="#7cb991" stroke-width="1.51"/><path d="M82 328l-191 137 332 263z" fill="#a3dbca" stroke="#a3dbca" stroke-width="1.51"/><path d="M-109 465l-48 178 380 85z" fill="#9fd8c4" stroke="#9fd8c4" stroke-width="1.51"/><path d="M-157 643l23 381 357-296z" fill="#94d1b4" stroke="#94d1b4" stroke-width="1.51"/><path d="M223 728l-357 296 368-73z" fill="#8bc9a7" stroke="#8bc9a7" stroke-width="1.51"/><path d="M-134 1024l204 252 164-325z" fill="#84bd97" stroke="#84bd97" stroke-width="1.51"/><path d="M-127-360l326 203 36-193z" fill="#ddf2f2" stroke="#ddf2f2" stroke-width="1.51"/><path d="M70 1276l-106 12 245 168z" fill="#77ad89" stroke="#77ad89" stroke-width="1.51"/><path d="M-36 1288l-155 259 400-91z" fill="#77a787" stroke="#77a787" stroke-width="1.51"/><path d="M-141-80L64 64l135-221z" fill="#d5efec" stroke="#d5efec" stroke-width="1.51"/><path d="M-127-360l-14 280 340-77z" fill="#ddf3f3" stroke="#ddf3f3" stroke-width="1.51"/><path d="M-141-80L-39 77 64 64z" fill="#d3efeb" stroke="#d3efeb" stroke-width="1.51"/><path d="M-134 1024l98 264 106-12z" fill="#82b793" stroke="#82b793" stroke-width="1.51"/><path d="M64 64L-39 77 82 328z" fill="#c4e8e2" stroke="#c4e8e2" stroke-width="1.51"/><path d="M-39 77l-70 388L82 328z" fill="#b9e4dc" stroke="#b9e4dc" stroke-width="1.51"/><path d="M-310 173l201 292 70-388z" fill="#c2e8e2" stroke="#c2e8e2" stroke-width="1.51"/><path d="M-157 643l-205 346 228 35z" fill="#96cdaf" stroke="#96cdaf" stroke-width="1.51"/><path d="M-310 173l-61 152 262 140z" fill="#bee6de" stroke="#bee6de" stroke-width="1.51"/><path d="M-134 1024l-193 241 291 23z" fill="#86b996" stroke="#86b996" stroke-width="1.51"/><path d="M-327 1265l136 282 155-259z" fill="#7faf8d" stroke="#7faf8d" stroke-width="1.51"/><path d="M-399 701l37 288 205-346z" fill="#9ed4b9" stroke="#9ed4b9" stroke-width="1.51"/><path d="M-141-80l-169 253 271-96z" fill="#d3efec" stroke="#d3efec" stroke-width="1.51"/><path d="M-362 989l35 276 193-241z" fill="#8ec09c" stroke="#8ec09c" stroke-width="1.51"/><path d="M-429-186l288 106 14-280z" fill="#e4f5f7" stroke="#e4f5f7" stroke-width="1.51"/><path d="M-328-437l-101 251 302-174z" fill="#ebf7fb" stroke="#ebf7fb" stroke-width="1.51"/><path d="M-371 325l214 318 48-178z" fill="#afdfd2" stroke="#afdfd2" stroke-width="1.51"/><path d="M-371 325l-28 376 242-58z" fill="#abddcd" stroke="#abddcd" stroke-width="1.51"/><path d="M-429-186l119 359 169-253z" fill="#def3f1" stroke="#def3f1" stroke-width="1.51"/><path d="M-327 1265l-78 304 214-22z" fill="#7ea88a" stroke="#7ea88a" stroke-width="1.51"/><path d="M-429-186l58 511 61-152z" fill="#d5efeb" stroke="#d5efeb" stroke-width="1.51"/><path d="M-362 989l-43 580 78-304z" fill="#87b693" stroke="#87b693" stroke-width="1.51"/><path d="M-399 701l-6 868 43-580z" fill="#90c19d" stroke="#90c19d" stroke-width="1.51"/><path d="M-429-186l30 887 28-376z" fill="#c5e9e2" stroke="#c5e9e2" stroke-width="1.51"/><path d="M-429-186l24 1755 6-868z" fill="#a6d9c2" stroke="#a6d9c2" stroke-width="1.51"/></svg>